<svg width="1024" height="1024" viewBox="0 0 1024 1024" fill="none" xmlns="http://www.w3.org/2000/svg">
<path d="M 632.5 207.5 L 137.6 702.4 A 258.0 258.0 0 0 1 578.0 520.0 L 1378.0 520.0 L 1320.0 520.0 L 520.0 520.0 A 200.0 200.0 0 0 0 178.6 661.4 L 673.6 166.4 Z" fill="#F5F2EB" style="fill:#F5F2EB;fill:color(display-p3 0.9608 0.9490 0.9216);fill-opacity:1;"/>
<path d="M 581.6 258.4 L 86.7 753.3 A 330.0 330.0 0 0 1 650.0 520.0 L 1450.0 520.0 L 1392.0 520.0 L 592.0 520.0 A 272.0 272.0 0 0 0 127.7 712.3 L 622.6 217.4 Z" fill="#C23B22" style="fill:#C23B22;fill:color(display-p3 0.7608 0.2314 0.1333);fill-opacity:1;"/>
<path d="M 530.7 309.3 L 35.7 804.3 A 402.0 402.0 0 0 1 722.0 520.0 L 1522.0 520.0 L 1464.0 520.0 L 664.0 520.0 A 344.0 344.0 0 0 0 76.8 763.2 L 571.7 268.3 Z" fill="#1E2D4D" style="fill:#1E2D4D;fill:color(display-p3 0.1176 0.1765 0.3020);fill-opacity:1;"/>
<path d="M 479.8 360.2 L -15.2 855.2 A 474.0 474.0 0 0 1 794.0 520.0 L 1594.0 520.0 L 1536.0 520.0 L 736.0 520.0 A 416.0 416.0 0 0 0 25.8 814.2 L 520.8 319.2 Z" fill="#2A8A8A" style="fill:#2A8A8A;fill:color(display-p3 0.1647 0.5412 0.5412);fill-opacity:1;"/>
<path d="M 428.9 411.1 L -66.1 906.1 A 546.0 546.0 0 0 1 866.0 520.0 L 1666.0 520.0 L 1608.0 520.0 L 808.0 520.0 A 488.0 488.0 0 0 0 -25.1 865.1 L 469.9 370.1 Z" fill="#D4582A" style="fill:#D4582A;fill:color(display-p3 0.8314 0.3451 0.1647);fill-opacity:1;"/>
</svg>